<svg width="25" height="25" viewBox="0 0 25 25" fill="none" xmlns="http://www.w3.org/2000/svg">
<path d="M1.625 4.04167C1.625 2.70698 2.70698 1.625 4.04167 1.625H8.00408C8.52419 1.625 8.98594 1.95781 9.15041 2.45122L10.9603 7.8808C11.1504 8.45127 10.8922 9.07475 10.3543 9.34367L7.6268 10.7074C8.95868 13.6615 11.3385 16.0413 14.2926 17.3732L15.6563 14.6457C15.9253 14.1078 16.5487 13.8496 17.1192 14.0397L22.5488 15.8496C23.0422 16.0141 23.375 16.4758 23.375 16.9959V20.9583C23.375 22.293 22.293 23.375 20.9583 23.375H19.75C9.73984 23.375 1.625 15.2602 1.625 5.25V4.04167Z" stroke="#404040" stroke-width="1.5" stroke-linecap="round" stroke-linejoin="round"/>
</svg>
